<svg width="24" height="20" viewBox="0 0 24 20" fill="none" xmlns="http://www.w3.org/2000/svg">
<path d="M21.3333 9.99996V4.16663H23.6666V11.1666H21.3333M21.3333 15.8333H23.6666V13.5H21.3333M9.66659 11.1666C12.7816 11.1666 18.9999 12.73 18.9999 15.8333V19.3333H0.333252V15.8333C0.333252 12.73 6.55159 11.1666 9.66659 11.1666ZM9.66659 0.666626C10.9043 0.666626 12.0912 1.15829 12.9664 2.03346C13.8416 2.90863 14.3333 4.09562 14.3333 5.33329C14.3333 6.57097 13.8416 7.75795 12.9664 8.63312C12.0912 9.50829 10.9043 9.99996 9.66659 9.99996C8.42891 9.99996 7.24192 9.50829 6.36675 8.63312C5.49158 7.75795 4.99992 6.57097 4.99992 5.33329C4.99992 4.09562 5.49158 2.90863 6.36675 2.03346C7.24192 1.15829 8.42891 0.666626 9.66659 0.666626ZM9.66659 13.3833C6.20159 13.3833 2.54992 15.0866 2.54992 15.8333V17.1166H16.7833V15.8333C16.7833 15.0866 13.1316 13.3833 9.66659 13.3833ZM9.66659 2.88329C9.01681 2.88329 8.39364 3.14142 7.93417 3.60088C7.47471 4.06034 7.21659 4.68351 7.21659 5.33329C7.21659 5.98307 7.47471 6.60624 7.93417 7.0657C8.39364 7.52517 9.01681 7.78329 9.66659 7.78329C10.3164 7.78329 10.9395 7.52517 11.399 7.0657C11.8585 6.60624 12.1166 5.98307 12.1166 5.33329C12.1166 4.68351 11.8585 4.06034 11.399 3.60088C10.9395 3.14142 10.3164 2.88329 9.66659 2.88329Z" fill="black"/>
</svg>
